<?xml version="1.0" standalone="no"?><!DOCTYPE svg PUBLIC "-//W3C//DTD SVG 1.1//EN" "http://www.w3.org/Graphics/SVG/1.1/DTD/svg11.dtd"><svg t="1554293132728" class="icon" style="" viewBox="0 0 1024 1024" version="1.1" xmlns="http://www.w3.org/2000/svg" p-id="5437" xmlns:xlink="http://www.w3.org/1999/xlink" width="200" height="200"><defs><style type="text/css"></style></defs><path d="M874.426966 70.659305H151.487626c-43.421516 0-78.624733 35.203217-78.624733 78.624734v729.27917H37.388743c-20.645088 0-37.388743 16.743654-37.388743 37.388743s16.743654 37.388743 37.388743 37.388743h949.204452c20.645088 0 37.388743-16.743654 37.388743-37.388743s-16.743654-37.388743-37.388743-37.388743h-33.559558V149.284039c0.018062-43.421516-35.185155-78.624733-78.606671-78.624734zM146.592772 878.563209V172.728767c0-15.55155 12.607412-28.158961 28.158961-28.158961h676.393064c15.55155 0 28.158961 12.607412 28.158962 28.158961V878.545147H138.067416h8.525356z" p-id="5438" fill="#f37b1d"></path><path d="M718.839222 412.179281c-7.98349 0-15.948918 3.034449-22.035878 9.121409l-115.290988 115.290988-113.502831-113.502831c-0.487679-0.559928-0.668301-1.264354-1.192105-1.788157-6.08696-6.08696-14.052387-9.067222-22.035877-9.067222h-0.614115c-7.98349 0-15.948918 2.980262-22.035877 9.067222-0.523804 0.523804-0.704426 1.228229-1.192105 1.788157l-135.845766 135.845766c-12.173919 12.173919-12.173919 31.897836 0 44.071755 6.08696 6.08696 14.052387 9.121408 22.035877 9.121408 7.98349 0 15.948918-3.034449 22.035878-9.121408l115.290988-115.290989 113.502831 113.502831c0.487679 0.559928 0.668301 1.264354 1.192105 1.788158 6.08696 6.08696 14.052387 9.067222 22.035878 9.067221h0.614114c7.965428 0 15.948918-2.980262 22.035878-9.067221 0.523804-0.523804 0.704426-1.228229 1.192104-1.788158l135.845766-135.845765c12.173919-12.173919 12.173919-31.897836 0-44.071755a31.148255 31.148255 0 0 0-22.035877-9.121409z" p-id="5439" fill="#f37b1d"></path></svg>