<?xml version="1.0" standalone="no"?><!DOCTYPE svg PUBLIC "-//W3C//DTD SVG 1.1//EN" "http://www.w3.org/Graphics/SVG/1.1/DTD/svg11.dtd"><svg t="1554294586513" class="icon" style="" viewBox="0 0 1024 1024" version="1.1" xmlns="http://www.w3.org/2000/svg" p-id="7546" xmlns:xlink="http://www.w3.org/1999/xlink" width="200" height="200"><defs><style type="text/css"></style></defs><path d="M702.699388 60.945047 321.284238 60.945047c-57.463044 0-104.022314 46.591131-104.022314 104.018052l0 693.454702c0 57.426921 46.560293 104.019075 104.022314 104.019075l381.416174 0c57.463044 0 104.022314-46.592155 104.022314-104.019075L806.722726 164.963099C806.722726 107.537202 760.163456 60.945047 702.699388 60.945047zM477.317197 95.617731l69.349233 0c9.582632 0 17.336541 7.754614 17.336541 17.33583 0 9.582239-7.753909 17.336854-17.336541 17.336854l-69.349233 0c-9.581609 0-17.336541-7.754614-17.336541-17.336854C459.980656 103.372346 467.735588 95.617731 477.317197 95.617731zM511.992325 920.077116c-24.482581 0-44.324277-19.840884-44.324277-44.322461 0-24.480554 19.84272-44.322461 44.324277-44.322461 24.481557 0 44.324277 19.84293 44.324277 44.322461C556.317626 900.237255 536.473882 920.077116 511.992325 920.077116zM737.373493 771.736603c0 9.582239-7.753909 17.33583-17.336541 17.33583L303.946674 789.072433c-9.582632 0-17.337564-7.753591-17.337564-17.33583L286.60911 182.299953c0-9.582239 7.754932-17.33583 17.337564-17.33583l416.090278 0c9.582632 0 17.336541 7.754614 17.336541 17.33583L737.373493 771.736603z" p-id="7547" fill="#0081ff"></path></svg>