<?xml version="1.0" standalone="no"?><!DOCTYPE svg PUBLIC "-//W3C//DTD SVG 1.1//EN" "http://www.w3.org/Graphics/SVG/1.1/DTD/svg11.dtd"><svg t="1557907809651" class="icon" style="" viewBox="0 0 1024 1024" version="1.1" xmlns="http://www.w3.org/2000/svg" p-id="2631" xmlns:xlink="http://www.w3.org/1999/xlink" width="64" height="64"><defs><style type="text/css"></style></defs><path d="M952.2 911.2L753 712c57.3-68.6 91.8-156.7 91.8-252.9 0-225-189.1-406.7-416.7-394.6-200.3 10.7-362.3 172.8-373 373.2C43 665.3 224.7 854.3 449.7 854.3c18.4 0 36.5-1.3 54.3-3.8 17.9-2.5 28.6-21.3 21.3-37.9-4.9-11.2-16.7-17.6-28.9-15.9-15.3 2.1-30.8 3.2-46.7 3.2-193.3 0-349.6-161.8-340.4-357.1 8.2-174.4 149.7-316 324.2-324.1 195.3-9.1 357.1 147.1 357.1 340.4 0 118.9-61.3 223.8-153.9 284.7-10.9 7.2-14.8 21.4-9.6 33.4v0.1c6.7 15.3 25.7 21.1 39.7 11.9 17.2-11.4 33.5-24.1 48.7-37.9l198.3 198.4c5.3 5.3 12.3 8 19.2 8 7 0 13.9-2.7 19.2-8 10.6-10.7 10.6-27.9 0-38.5z" p-id="2632" fill="#808080"></path></svg>