<?xml version="1.0" standalone="no"?><!DOCTYPE svg PUBLIC "-//W3C//DTD SVG 1.1//EN" "http://www.w3.org/Graphics/SVG/1.1/DTD/svg11.dtd"><svg t="1554293080253" class="icon" style="" viewBox="0 0 1024 1024" version="1.1" xmlns="http://www.w3.org/2000/svg" p-id="4507" xmlns:xlink="http://www.w3.org/1999/xlink" width="200" height="200"><defs><style type="text/css"></style></defs><path d="M320 76.8l64 83.2h224l64-83.2 6.4-12.8V57.6c0-12.8-6.4-19.2-19.2-25.6 0 0-89.6-19.2-166.4-19.2S326.4 32 326.4 32c-32 12.8-6.4 44.8-6.4 44.8zM627.2 217.6H396.8c-179.2 64-326.4 262.4-326.4 448 0 230.4 128 339.2 441.6 339.2s441.6-108.8 441.6-339.2c0-185.6-147.2-384-326.4-448z m44.8 473.6c12.8 0 25.6 12.8 25.6 25.6s-12.8 25.6-25.6 25.6h-128V832c0 12.8-12.8 25.6-25.6 25.6s-25.6-12.8-25.6-25.6v-83.2h-128c-12.8 0-25.6-12.8-25.6-25.6s12.8-25.6 25.6-25.6h128V627.2h-128c-12.8 0-25.6-12.8-25.6-25.6s12.8-25.6 25.6-25.6h134.4v-6.4s-6.4 0-6.4-6.4L390.4 441.6c-12.8-6.4-12.8-25.6 0-38.4s32-6.4 38.4 6.4L518.4 512l89.6-102.4c12.8-12.8 25.6-12.8 38.4-6.4 12.8 12.8 12.8 25.6 6.4 38.4L550.4 563.2c0 6.4-6.4 6.4-12.8 6.4h134.4c12.8 0 25.6 12.8 25.6 25.6s-12.8 25.6-25.6 25.6h-128v70.4h128z" fill="#39b54a" p-id="4508"></path></svg>